<svg width="40" height="40" viewBox="0 0 40 40" fill="none" xmlns="http://www.w3.org/2000/svg">
<rect width="40" height="40" rx="8" fill="#FEF0E7"/>
<path d="M17.338 13.59C16.3855 13.8523 15.4396 14.1377 14.501 14.446C14.4152 14.4737 14.339 14.5249 14.281 14.5939C14.223 14.6628 14.1856 14.7468 14.173 14.836C13.619 18.993 14.899 22.026 16.426 24.024C17.0722 24.8786 17.8432 25.6314 18.713 26.257C19.059 26.501 19.365 26.677 19.606 26.79C19.726 26.8467 19.8237 26.886 19.899 26.908C19.9322 26.9181 19.9659 26.9264 20 26.933C20.0337 26.9264 20.0671 26.918 20.1 26.908C20.176 26.8853 20.274 26.846 20.394 26.79C20.634 26.677 20.941 26.5 21.287 26.257C22.1568 25.6314 22.9278 24.8786 23.574 24.024C25.101 22.027 26.381 18.993 25.827 14.836C25.8145 14.7468 25.777 14.6628 25.719 14.5939C25.661 14.5249 25.5848 14.4737 25.499 14.446C24.848 14.233 23.749 13.886 22.662 13.591C21.552 13.29 20.531 13.067 20 13.067C19.47 13.067 18.448 13.289 17.338 13.59ZM17.072 12.56C18.157 12.265 19.31 12 20 12C20.69 12 21.843 12.265 22.928 12.56C24.038 12.86 25.157 13.215 25.815 13.43C26.0901 13.5209 26.334 13.6875 26.5187 13.9107C26.7034 14.1339 26.8213 14.4047 26.859 14.692C27.455 19.169 26.072 22.487 24.394 24.682C23.6822 25.6207 22.8338 26.4476 21.877 27.135C21.5465 27.3734 21.1959 27.5826 20.829 27.76C20.549 27.892 20.248 28 20 28C19.752 28 19.452 27.892 19.171 27.76C18.8041 27.5826 18.4535 27.3734 18.123 27.135C17.1663 26.4476 16.3178 25.6207 15.606 24.682C13.928 22.487 12.545 19.169 13.141 14.692C13.1787 14.4047 13.2966 14.1339 13.4813 13.9107C13.666 13.6875 13.9099 13.5209 14.185 13.43C15.1403 13.117 16.1029 12.8269 17.072 12.56Z" fill="#F9811F"/>
</svg>
